<svg xmlns:mydata="http://www.w3.org/2000/svg" mydata:contrastcolor="005F86" mydata:template="Contrast" mydata:presentation="2.5" mydata:layouttype="undefined" mydata:specialfontid="undefined" mydata:id1="097" mydata:id2="865" mydata:companyname="dev.cas" mydata:companytagline="" version="1.1"
  xmlns="http://www.w3.org/2000/svg"
  xmlns:xlink="http://www.w3.org/1999/xlink" class="svg-standalone-icon" width="100%" viewBox="65 201.83470697784753 82.16381129730027 66.33058604430494">
  <g data-paper-data="{&quot;isIcon&quot;:&quot;true&quot;,&quot;iconType&quot;:&quot;icon&quot;,&quot;rawIconId&quot;:&quot;388602&quot;,&quot;selectedEffects&quot;:{&quot;container&quot;:&quot;&quot;,&quot;transformation&quot;:&quot;&quot;,&quot;pattern&quot;:&quot;&quot;},&quot;combineTerms&quot;:&quot;code&quot;,&quot;isDetailed&quot;:false,&quot;fillRule&quot;:&quot;evenodd&quot;,&quot;bounds&quot;:{&quot;x&quot;:65,&quot;y&quot;:201.83470697784753,&quot;width&quot;:82.16381129730027,&quot;height&quot;:66.33058604430494},&quot;iconStyle&quot;:&quot;standalone&quot;,&quot;suitableAsStandaloneIcon&quot;:true}" fill-rule="evenodd">
    <path d="M65,205.68613v58.62773c0,2.11829 1.73314,3.85143 3.85143,3.85143h74.46095c2.11829,0 3.85143,-1.73314 3.85143,-3.85143v-58.62773c0,-2.11829 -1.73314,-3.85143 -3.85143,-3.85143h-74.46095c-2.11829,0 -3.85143,1.73314 -3.85143,3.85143zM138.32607,210.6609h-40.90602l-4.46252,6.83243h45.36855zM78.06918,213.98468c0,-1.16698 -0.94745,-2.11315 -2.11572,-2.11315c-1.16827,0 -2.11572,0.94617 -2.11572,2.11315c0,1.16698 0.94745,2.11315 2.11572,2.11315c1.16827,0 2.11572,-0.94617 2.11572,-2.11315zM83.67815,213.98468c0,-1.16698 -0.94745,-2.11315 -2.11572,-2.11315c-1.16827,0 -2.11572,0.94617 -2.11572,2.11315c0,1.16698 0.94745,2.11315 2.11572,2.11315c1.16827,0 2.11572,-0.94617 2.11572,-2.11315zM89.28711,213.98468c0,-1.16698 -0.94745,-2.11315 -2.11572,-2.11315c-1.16955,0 -2.117,0.94617 -2.11572,2.11315c0,1.16698 0.94745,2.11315 2.11572,2.11315c1.16827,0 2.11572,-0.94617 2.11572,-2.11315zM104.65944,251.17279l6.48709,-26.79824h-3.72947l-6.41519,26.79824zM99.35603,247.77968v-5.003l-12.39133,-4.91442l12.39133,-4.73726v-5.03895l-17.76536,7.69002v4.27765zM112.79109,228.12327v4.96706l12.4093,4.82712l-12.4093,4.87848v5.003l17.78204,-7.74394v-4.24171zM73.68754,258.92572l-5.80924,4.41246h10.23068l5.78998,-4.41246zM88.36405,258.92572l-5.80924,4.41246h47.05291l-5.80924,-4.41246zM128.26357,258.92572l5.78998,4.41246h10.23196l-5.81052,-4.41246z" data-paper-data="{&quot;isPathIcon&quot;:true}" style="fill: #ffffff;"></path>
  </g>
</svg>