<svg height="800px" width="800px" version="1.1" id="_x32_"
  xmlns="http://www.w3.org/2000/svg"
  xmlns:xlink="http://www.w3.org/1999/xlink" viewBox="0 0 512 512" xml:space="preserve" fill="#000000" stroke="#000000">
  <g id="SVGRepo_bgCarrier" stroke-width="0"/>
  <g id="SVGRepo_tracerCarrier" stroke-linecap="round" stroke-linejoin="round"/>
  <g id="SVGRepo_iconCarrier">
    <style type="text/css"> .st0{fill:#000000;} </style>
    <g>
      <path class="st0" d="M458.503,298.25c-9.779-13.392-15.332-26.817-15.308-42.254c-0.024-15.445,5.529-28.846,15.308-42.246 c9.803-13.232,23.727-26.343,41.031-36.87c-20.194,1.634-39.164-0.796-54.874-5.746c-15.784-5.078-28.146-12.693-37.192-25.144 c-9.062-12.443-12.524-26.568-12.492-43.155c0.13-16.468,3.703-35.261,11.526-53.949c-15.372,13.191-32.146,22.358-47.784,27.558 c-15.783,5.135-30.262,6.23-44.846,1.473c-14.616-4.724-25.674-14.117-35.437-27.534C268.842,36.999,260.648,19.71,255.996,0 c-4.652,19.71-12.838,36.999-22.439,50.383c-9.755,13.416-20.829,22.81-35.437,27.534c-14.592,4.757-29.063,3.662-44.838-1.473 c-15.638-5.2-32.411-14.358-47.784-27.558c7.823,18.688,11.389,37.481,11.518,53.949c0.024,16.588-3.428,30.712-12.491,43.155 c-9.055,12.451-21.409,20.065-37.2,25.144c-15.694,4.95-34.665,7.38-54.858,5.746c17.304,10.528,31.228,23.638,41.024,36.87 c9.787,13.4,15.332,26.801,15.316,42.246c0.016,15.437-5.529,28.862-15.316,42.254c-9.795,13.232-23.72,26.334-41.024,36.87 c20.194-1.634,39.164,0.789,54.858,5.739c15.791,5.086,28.145,12.7,37.2,25.152c9.063,12.435,12.515,26.568,12.491,43.164 c-0.129,16.475-3.695,35.252-11.518,53.94c15.373-13.2,32.145-22.359,47.784-27.558c15.774-5.134,30.246-6.229,44.838-1.473 c14.608,4.725,25.682,14.117,35.437,27.534c9.602,13.392,17.787,30.672,22.439,50.382c4.652-19.71,12.846-36.99,22.439-50.382 c9.763-13.417,20.822-22.81,35.437-27.534c14.592-4.756,29.063-3.662,44.846,1.473c15.638,5.2,32.412,14.358,47.784,27.558 c-7.823-18.689-11.396-37.466-11.526-53.949c-0.032-16.588,3.429-30.72,12.492-43.155c9.054-12.452,21.408-20.065,37.192-25.152 c15.71-4.95,34.68-7.372,54.874-5.739C482.229,324.585,468.305,311.482,458.503,298.25z M255.996,396.707 c-77.7,0-140.702-63.003-140.702-140.711c0-77.708,63.003-140.702,140.702-140.702c77.716,0,140.702,62.994,140.702,140.702 C396.699,333.704,333.712,396.707,255.996,396.707z"/>
    </g>
  </g>

</svg>