<svg xmlns:mydata="http://www.w3.org/2000/svg" mydata:contrastcolor="005F86" mydata:template="Contrast" mydata:presentation="2.5" mydata:layouttype="undefined" mydata:specialfontid="undefined" mydata:id1="097" mydata:id2="865" mydata:companyname="dev.cas" mydata:companytagline="" version="1.1"
  xmlns="http://www.w3.org/2000/svg"
  xmlns:xlink="http://www.w3.org/1999/xlink" viewBox="65 201.83470697784753 420 66.33058604430494">
  <g fill="#101820" fill-rule="none" stroke="none" stroke-width="1" stroke-linecap="butt" stroke-linejoin="miter" stroke-miterlimit="10" stroke-dasharray="" stroke-dashoffset="0" font-family="none" font-weight="700" font-size="none" text-anchor="none" style="mix-blend-mode: normal">
    <g data-paper-data="{&quot;isGlobalGroup&quot;:true,&quot;bounds&quot;:{&quot;x&quot;:65,&quot;y&quot;:201.83470697784753,&quot;width&quot;:420,&quot;height&quot;:66.33058604430494}}">
      <g data-paper-data="{&quot;isPrimaryText&quot;:true}" fill-rule="nonzero">
        <path d="M203.09696,264.45658c2.87381,0 8.71124,0.62865 15.62636,0.62865c16.61423,0 25.77451,-6.19666 25.77451,-30.08522c0,-24.3376 -9.25008,-30.17503 -25.77451,-30.17503c-7.00492,0 -12.75254,0.53884 -15.62636,0.53884zM219.8908,255.2963c-1.52671,0 -3.05343,0 -4.31072,-0.08981v-40.41299c1.43691,-0.08981 2.96362,-0.17961 4.22091,-0.17961c8.35202,0 11.85448,6.37627 11.85448,20.38611c0,13.471 -3.50246,20.2963 -11.76467,20.2963z" data-paper-data="{&quot;glyphName&quot;:&quot;D&quot;,&quot;glyphIndex&quot;:0,&quot;firstGlyphOfWord&quot;:true,&quot;word&quot;:1}" style="fill: rgb(255, 255, 255);"></path>
        <path d="M285.00061,264.45658v-10.14815h-19.39823v-15.62636h14.72829v-9.5195h-14.72829v-13.65061h19.39823v-10.14815h-31.97116v59.09277z" data-paper-data="{&quot;glyphName&quot;:&quot;E&quot;,&quot;glyphIndex&quot;:1,&quot;word&quot;:1}" style="fill: rgb(255, 255, 255);"></path>
        <path d="M318.22907,264.45658l16.52442,-59.09277h-12.84235l-8.98066,40.68241l-1.07768,8.89086l-1.07768,-8.89086l-8.98066,-40.68241h-12.84235l16.52442,59.09277z" data-paper-data="{&quot;glyphName&quot;:&quot;V&quot;,&quot;glyphIndex&quot;:2,&quot;word&quot;:1}" style="fill: rgb(255, 255, 255);"></path>
        <path d="M348.58371,257.81089c0,-4.49033 -2.96362,-7.54376 -6.7355,-7.54376c-3.77188,0 -6.7355,3.05343 -6.7355,7.54376c0,4.49033 2.96362,7.54376 6.7355,7.54376c3.77188,0 6.7355,-3.05343 6.7355,-7.54376z" data-paper-data="{&quot;glyphName&quot;:&quot;.&quot;,&quot;glyphIndex&quot;:3,&quot;word&quot;:1}" style="fill: rgb(255, 255, 255);"></path>
        <path d="M369.05963,235c0,-14.00984 2.96362,-20.83514 13.20158,-20.83514c4.31072,0 8.1724,1.52671 9.87873,2.24517c0.53884,-3.14323 1.07768,-6.28646 1.70633,-9.4297c-1.52671,-0.44903 -6.28646,-2.78401 -13.74042,-2.78401c-15.89578,0 -24.06818,10.05834 -24.06818,30.80368c0,20.74533 8.1724,30.80368 24.06818,30.80368c7.45395,0 12.2137,-2.33497 13.74042,-2.78401c-0.62865,-3.14323 -1.16749,-6.28646 -1.70633,-9.4297c-1.70633,0.71845 -5.56801,2.24517 -9.87873,2.24517c-10.23796,0 -13.20158,-6.8253 -13.20158,-20.83514z" data-paper-data="{&quot;glyphName&quot;:&quot;C&quot;,&quot;glyphIndex&quot;:4,&quot;word&quot;:1}" style="fill: rgb(255, 255, 255);"></path>
        <path d="M398.33659,264.45658h12.57293l2.6942,-10.23796h16.52442l2.6942,10.23796h13.20158l-16.1652,-59.09277h-15.08752zM421.95574,216.76925c1.16749,6.37627 4.0413,18.58997 6.28646,28.82793h-12.75254c2.33497,-10.23796 5.20879,-22.45166 6.46608,-28.82793z" data-paper-data="{&quot;glyphName&quot;:&quot;A&quot;,&quot;glyphIndex&quot;:5,&quot;word&quot;:1}" style="fill: rgb(255, 255, 255);"></path>
        <path d="M469.01442,204.28613c-11.94428,0 -18.9492,6.55588 -18.9492,17.06326c0,17.42249 22.27205,17.69191 22.27205,27.66045c0,4.66995 -4.49033,6.7355 -8.80105,6.7355c-4.84956,0 -9.78892,-2.96362 -11.58506,-3.59227l-2.87381,9.07047c1.97575,0.71845 7.27434,4.40053 16.255,4.40053c13.02196,0 19.66765,-6.64569 19.66765,-17.78171c0,-16.61423 -22.27205,-16.79384 -22.27205,-27.66045c0,-2.51459 2.15536,-6.55588 7.63356,-6.55588c4.84956,0 9.78892,2.96362 11.58506,3.59227l2.87381,-9.07047c-1.97575,-0.71845 -6.8253,-3.86169 -15.80597,-3.86169z" data-paper-data="{&quot;glyphName&quot;:&quot;S&quot;,&quot;glyphIndex&quot;:6,&quot;lastGlyphOfWord&quot;:true,&quot;word&quot;:1}" style="fill: rgb(255, 255, 255);"></path>
      </g>
      <g data-paper-data="{&quot;isIcon&quot;:&quot;true&quot;,&quot;iconType&quot;:&quot;icon&quot;,&quot;rawIconId&quot;:&quot;388602&quot;,&quot;selectedEffects&quot;:{&quot;container&quot;:&quot;&quot;,&quot;transformation&quot;:&quot;&quot;,&quot;pattern&quot;:&quot;&quot;},&quot;combineTerms&quot;:&quot;code&quot;,&quot;isDetailed&quot;:false,&quot;fillRule&quot;:&quot;evenodd&quot;,&quot;bounds&quot;:{&quot;x&quot;:65,&quot;y&quot;:201.83470697784753,&quot;width&quot;:82.16381129730027,&quot;height&quot;:66.33058604430494},&quot;iconStyle&quot;:&quot;standalone&quot;,&quot;suitableAsStandaloneIcon&quot;:true}" fill-rule="evenodd">
        <path d="M65,205.68613v58.62773c0,2.11829 1.73314,3.85143 3.85143,3.85143h74.46095c2.11829,0 3.85143,-1.73314 3.85143,-3.85143v-58.62773c0,-2.11829 -1.73314,-3.85143 -3.85143,-3.85143h-74.46095c-2.11829,0 -3.85143,1.73314 -3.85143,3.85143zM138.32607,210.6609h-40.90602l-4.46252,6.83243h45.36855zM78.06918,213.98468c0,-1.16698 -0.94745,-2.11315 -2.11572,-2.11315c-1.16827,0 -2.11572,0.94617 -2.11572,2.11315c0,1.16698 0.94745,2.11315 2.11572,2.11315c1.16827,0 2.11572,-0.94617 2.11572,-2.11315zM83.67815,213.98468c0,-1.16698 -0.94745,-2.11315 -2.11572,-2.11315c-1.16827,0 -2.11572,0.94617 -2.11572,2.11315c0,1.16698 0.94745,2.11315 2.11572,2.11315c1.16827,0 2.11572,-0.94617 2.11572,-2.11315zM89.28711,213.98468c0,-1.16698 -0.94745,-2.11315 -2.11572,-2.11315c-1.16955,0 -2.117,0.94617 -2.11572,2.11315c0,1.16698 0.94745,2.11315 2.11572,2.11315c1.16827,0 2.11572,-0.94617 2.11572,-2.11315zM104.65944,251.17279l6.48709,-26.79824h-3.72947l-6.41519,26.79824zM99.35603,247.77968v-5.003l-12.39133,-4.91442l12.39133,-4.73726v-5.03895l-17.76536,7.69002v4.27765zM112.79109,228.12327v4.96706l12.4093,4.82712l-12.4093,4.87848v5.003l17.78204,-7.74394v-4.24171zM73.68754,258.92572l-5.80924,4.41246h10.23068l5.78998,-4.41246zM88.36405,258.92572l-5.80924,4.41246h47.05291l-5.80924,-4.41246zM128.26357,258.92572l5.78998,4.41246h10.23196l-5.81052,-4.41246z" data-paper-data="{&quot;isPathIcon&quot;:true}" style="fill: rgb(255, 255, 255);"></path>
      </g>
      <path d="M169.53707,268.16529v-66.33059h2.56275v66.33059z" data-paper-data="{&quot;isShapeTextSeparator&quot;:true}" fill-rule="nonzero" style="fill: rgb(255, 255, 255);"></path>
    </g>
  </g>
</svg>